<?xml version="1.0" encoding="UTF-8" standalone="no"?>
<!DOCTYPE svg PUBLIC "-//W3C//DTD SVG 1.1//EN"
 "http://www.w3.org/Graphics/SVG/1.1/DTD/svg11.dtd">
<!-- Generated by graphviz version 2.38.0 (20140413.2041)
 -->
<!-- Title: snakemake_dag Pages: 1 -->
<svg width="416pt" height="404pt"
 viewBox="0.00 0.00 415.50 404.00" xmlns="http://www.w3.org/2000/svg" xmlns:xlink="http://www.w3.org/1999/xlink">
<g id="graph0" class="graph" transform="scale(1 1) rotate(0) translate(4 400)">
<title>snakemake_dag</title>
<polygon fill="white" stroke="none" points="-4,4 -4,-400 411.5,-400 411.5,4 -4,4"/>
<!-- 0 -->
<g id="node1" class="node"><title>0</title>
<path fill="none" stroke="#56a9d8" stroke-width="2" d="M167.5,-36C167.5,-36 137.5,-36 137.5,-36 131.5,-36 125.5,-30 125.5,-24 125.5,-24 125.5,-12 125.5,-12 125.5,-6 131.5,-0 137.5,-0 137.5,-0 167.5,-0 167.5,-0 173.5,-0 179.5,-6 179.5,-12 179.5,-12 179.5,-24 179.5,-24 179.5,-30 173.5,-36 167.5,-36"/>
<text text-anchor="middle" x="152.5" y="-15.5" font-family="sans" font-size="10.00">all</text>
</g>
<!-- 1 -->
<g id="node2" class="node"><title>1</title>
<path fill="none" stroke="#d85656" stroke-width="2" d="M90.5,-108C90.5,-108 60.5,-108 60.5,-108 54.5,-108 48.5,-102 48.5,-96 48.5,-96 48.5,-84 48.5,-84 48.5,-78 54.5,-72 60.5,-72 60.5,-72 90.5,-72 90.5,-72 96.5,-72 102.5,-78 102.5,-84 102.5,-84 102.5,-96 102.5,-96 102.5,-102 96.5,-108 90.5,-108"/>
<text text-anchor="middle" x="75.5" y="-87.5" font-family="sans" font-size="10.00">tabix</text>
</g>
<!-- 1&#45;&gt;0 -->
<g id="edge1" class="edge"><title>1&#45;&gt;0</title>
<path fill="none" stroke="grey" stroke-width="2" d="M94.5337,-71.6966C104.045,-63.0503 115.707,-52.4486 126.07,-43.027"/>
<polygon fill="grey" stroke="grey" stroke-width="2" points="128.64,-45.4209 133.685,-36.1043 123.931,-40.2413 128.64,-45.4209"/>
</g>
<!-- 2 -->
<g id="node3" class="node"><title>2</title>
<path fill="none" stroke="#d85656" stroke-width="2" d="M167.5,-108C167.5,-108 137.5,-108 137.5,-108 131.5,-108 125.5,-102 125.5,-96 125.5,-96 125.5,-84 125.5,-84 125.5,-78 131.5,-72 137.5,-72 137.5,-72 167.5,-72 167.5,-72 173.5,-72 179.5,-78 179.5,-84 179.5,-84 179.5,-96 179.5,-96 179.5,-102 173.5,-108 167.5,-108"/>
<text text-anchor="middle" x="152.5" y="-87.5" font-family="sans" font-size="10.00">tabix</text>
</g>
<!-- 2&#45;&gt;0 -->
<g id="edge2" class="edge"><title>2&#45;&gt;0</title>
<path fill="none" stroke="grey" stroke-width="2" d="M152.5,-71.6966C152.5,-63.9827 152.5,-54.7125 152.5,-46.1124"/>
<polygon fill="grey" stroke="grey" stroke-width="2" points="156,-46.1043 152.5,-36.1043 149,-46.1044 156,-46.1043"/>
</g>
<!-- 3 -->
<g id="node4" class="node"><title>3</title>
<path fill="none" stroke="#d85656" stroke-width="2" d="M277.5,-108C277.5,-108 247.5,-108 247.5,-108 241.5,-108 235.5,-102 235.5,-96 235.5,-96 235.5,-84 235.5,-84 235.5,-78 241.5,-72 247.5,-72 247.5,-72 277.5,-72 277.5,-72 283.5,-72 289.5,-78 289.5,-84 289.5,-84 289.5,-96 289.5,-96 289.5,-102 283.5,-108 277.5,-108"/>
<text text-anchor="middle" x="262.5" y="-87.5" font-family="sans" font-size="10.00">tabix</text>
</g>
<!-- 3&#45;&gt;0 -->
<g id="edge3" class="edge"><title>3&#45;&gt;0</title>
<path fill="none" stroke="grey" stroke-width="2" d="M235.591,-71.8761C221.342,-62.8083 203.654,-51.5523 188.264,-41.7592"/>
<polygon fill="grey" stroke="grey" stroke-width="2" points="189.828,-38.6057 179.512,-36.1898 186.07,-44.5114 189.828,-38.6057"/>
</g>
<!-- 4 -->
<g id="node5" class="node"><title>4</title>
<path fill="none" stroke="#afd856" stroke-width="2" d="M85.5,-180C85.5,-180 55.5,-180 55.5,-180 49.5,-180 43.5,-174 43.5,-168 43.5,-168 43.5,-156 43.5,-156 43.5,-150 49.5,-144 55.5,-144 55.5,-144 85.5,-144 85.5,-144 91.5,-144 97.5,-150 97.5,-156 97.5,-156 97.5,-168 97.5,-168 97.5,-174 91.5,-180 85.5,-180"/>
<text text-anchor="middle" x="70.5" y="-159.5" font-family="sans" font-size="10.00">bgzip</text>
</g>
<!-- 4&#45;&gt;1 -->
<g id="edge4" class="edge"><title>4&#45;&gt;1</title>
<path fill="none" stroke="grey" stroke-width="2" d="M71.736,-143.697C72.2869,-135.983 72.9491,-126.712 73.5634,-118.112"/>
<polygon fill="grey" stroke="grey" stroke-width="2" points="77.0568,-118.328 74.2783,-108.104 70.0746,-117.83 77.0568,-118.328"/>
</g>
<!-- 5 -->
<g id="node6" class="node"><title>5</title>
<path fill="none" stroke="#afd856" stroke-width="2" d="M167.5,-180C167.5,-180 137.5,-180 137.5,-180 131.5,-180 125.5,-174 125.5,-168 125.5,-168 125.5,-156 125.5,-156 125.5,-150 131.5,-144 137.5,-144 137.5,-144 167.5,-144 167.5,-144 173.5,-144 179.5,-150 179.5,-156 179.5,-156 179.5,-168 179.5,-168 179.5,-174 173.5,-180 167.5,-180"/>
<text text-anchor="middle" x="152.5" y="-159.5" font-family="sans" font-size="10.00">bgzip</text>
</g>
<!-- 5&#45;&gt;2 -->
<g id="edge5" class="edge"><title>5&#45;&gt;2</title>
<path fill="none" stroke="grey" stroke-width="2" d="M152.5,-143.697C152.5,-135.983 152.5,-126.712 152.5,-118.112"/>
<polygon fill="grey" stroke="grey" stroke-width="2" points="156,-118.104 152.5,-108.104 149,-118.104 156,-118.104"/>
</g>
<!-- 6 -->
<g id="node7" class="node"><title>6</title>
<path fill="none" stroke="#afd856" stroke-width="2" d="M302.5,-180C302.5,-180 272.5,-180 272.5,-180 266.5,-180 260.5,-174 260.5,-168 260.5,-168 260.5,-156 260.5,-156 260.5,-150 266.5,-144 272.5,-144 272.5,-144 302.5,-144 302.5,-144 308.5,-144 314.5,-150 314.5,-156 314.5,-156 314.5,-168 314.5,-168 314.5,-174 308.5,-180 302.5,-180"/>
<text text-anchor="middle" x="287.5" y="-159.5" font-family="sans" font-size="10.00">bgzip</text>
</g>
<!-- 6&#45;&gt;3 -->
<g id="edge6" class="edge"><title>6&#45;&gt;3</title>
<path fill="none" stroke="grey" stroke-width="2" d="M281.32,-143.697C278.505,-135.813 275.109,-126.304 271.981,-117.546"/>
<polygon fill="grey" stroke="grey" stroke-width="2" points="275.268,-116.345 268.609,-108.104 268.676,-118.699 275.268,-116.345"/>
</g>
<!-- 7 -->
<g id="node8" class="node"><title>7</title>
<path fill="none" stroke="#d8ac56" stroke-width="2" d="M47,-396C47,-396 12,-396 12,-396 6,-396 0,-390 0,-384 0,-384 0,-372 0,-372 0,-366 6,-360 12,-360 12,-360 47,-360 47,-360 53,-360 59,-366 59,-372 59,-372 59,-384 59,-384 59,-390 53,-396 47,-396"/>
<text text-anchor="middle" x="29.5" y="-381" font-family="sans" font-size="10.00">zcat</text>
<text text-anchor="middle" x="29.5" y="-370" font-family="sans" font-size="10.00">contig: 1</text>
</g>
<!-- 7&#45;&gt;4 -->
<g id="edge7" class="edge"><title>7&#45;&gt;4</title>
<path fill="none" stroke="grey" stroke-width="2" d="M26.9353,-359.541C23.1808,-329.394 18.2691,-266.006 34.5,-216 37.6604,-206.263 43.2011,-196.677 49.0022,-188.393"/>
<polygon fill="grey" stroke="grey" stroke-width="2" points="51.881,-190.387 55.0529,-180.278 46.2693,-186.202 51.881,-190.387"/>
</g>
<!-- 8 -->
<g id="node9" class="node"><title>8</title>
<path fill="none" stroke="#56d8a9" stroke-width="2" d="M85.5,-252C85.5,-252 55.5,-252 55.5,-252 49.5,-252 43.5,-246 43.5,-240 43.5,-240 43.5,-228 43.5,-228 43.5,-222 49.5,-216 55.5,-216 55.5,-216 85.5,-216 85.5,-216 91.5,-216 97.5,-222 97.5,-228 97.5,-228 97.5,-240 97.5,-240 97.5,-246 91.5,-252 85.5,-252"/>
<text text-anchor="middle" x="70.5" y="-231.5" font-family="sans" font-size="10.00">paste</text>
</g>
<!-- 7&#45;&gt;8 -->
<g id="edge14" class="edge"><title>7&#45;&gt;8</title>
<path fill="none" stroke="grey" stroke-width="2" d="M32.2257,-359.698C35.3028,-341.587 40.8899,-312.438 48.5,-288 51.2252,-279.249 54.8329,-269.943 58.3369,-261.611"/>
<polygon fill="grey" stroke="grey" stroke-width="2" points="61.5772,-262.935 62.3436,-252.368 55.1548,-260.151 61.5772,-262.935"/>
</g>
<!-- 13 -->
<g id="node14" class="node"><title>13</title>
<path fill="none" stroke="#59d856" stroke-width="2" d="M99.5,-324C99.5,-324 69.5,-324 69.5,-324 63.5,-324 57.5,-318 57.5,-312 57.5,-312 57.5,-300 57.5,-300 57.5,-294 63.5,-288 69.5,-288 69.5,-288 99.5,-288 99.5,-288 105.5,-288 111.5,-294 111.5,-300 111.5,-300 111.5,-312 111.5,-312 111.5,-318 105.5,-324 99.5,-324"/>
<text text-anchor="middle" x="84.5" y="-303.5" font-family="sans" font-size="10.00">rscript</text>
</g>
<!-- 7&#45;&gt;13 -->
<g id="edge19" class="edge"><title>7&#45;&gt;13</title>
<path fill="none" stroke="grey" stroke-width="2" d="M43.0955,-359.697C49.6227,-351.389 57.568,-341.277 64.7466,-332.141"/>
<polygon fill="grey" stroke="grey" stroke-width="2" points="67.6347,-334.13 71.0609,-324.104 62.1305,-329.805 67.6347,-334.13"/>
</g>
<!-- 8&#45;&gt;4 -->
<g id="edge8" class="edge"><title>8&#45;&gt;4</title>
<path fill="none" stroke="grey" stroke-width="2" d="M70.5,-215.697C70.5,-207.983 70.5,-198.712 70.5,-190.112"/>
<polygon fill="grey" stroke="grey" stroke-width="2" points="74.0001,-190.104 70.5,-180.104 67.0001,-190.104 74.0001,-190.104"/>
</g>
<!-- 9 -->
<g id="node10" class="node"><title>9</title>
<path fill="none" stroke="#d8ac56" stroke-width="2" d="M195,-396C195,-396 160,-396 160,-396 154,-396 148,-390 148,-384 148,-384 148,-372 148,-372 148,-366 154,-360 160,-360 160,-360 195,-360 195,-360 201,-360 207,-366 207,-372 207,-372 207,-384 207,-384 207,-390 201,-396 195,-396"/>
<text text-anchor="middle" x="177.5" y="-381" font-family="sans" font-size="10.00">zcat</text>
<text text-anchor="middle" x="177.5" y="-370" font-family="sans" font-size="10.00">contig: 2</text>
</g>
<!-- 9&#45;&gt;5 -->
<g id="edge9" class="edge"><title>9&#45;&gt;5</title>
<path fill="none" stroke="grey" stroke-width="2" d="M174.397,-359.669C170.193,-335.592 162.73,-290.622 158.5,-252 156.238,-231.347 154.699,-207.899 153.747,-190.257"/>
<polygon fill="grey" stroke="grey" stroke-width="2" points="157.234,-189.908 153.228,-180.099 150.243,-190.265 157.234,-189.908"/>
</g>
<!-- 10 -->
<g id="node11" class="node"><title>10</title>
<path fill="none" stroke="#56d8a9" stroke-width="2" d="M209.5,-252C209.5,-252 179.5,-252 179.5,-252 173.5,-252 167.5,-246 167.5,-240 167.5,-240 167.5,-228 167.5,-228 167.5,-222 173.5,-216 179.5,-216 179.5,-216 209.5,-216 209.5,-216 215.5,-216 221.5,-222 221.5,-228 221.5,-228 221.5,-240 221.5,-240 221.5,-246 215.5,-252 209.5,-252"/>
<text text-anchor="middle" x="194.5" y="-231.5" font-family="sans" font-size="10.00">paste</text>
</g>
<!-- 9&#45;&gt;10 -->
<g id="edge16" class="edge"><title>9&#45;&gt;10</title>
<path fill="none" stroke="grey" stroke-width="2" d="M179.551,-359.871C182.448,-335.67 187.771,-291.211 191.221,-262.393"/>
<polygon fill="grey" stroke="grey" stroke-width="2" points="194.729,-262.534 192.442,-252.189 187.778,-261.702 194.729,-262.534"/>
</g>
<!-- 14 -->
<g id="node15" class="node"><title>14</title>
<path fill="none" stroke="#59d856" stroke-width="2" d="M247.5,-324C247.5,-324 217.5,-324 217.5,-324 211.5,-324 205.5,-318 205.5,-312 205.5,-312 205.5,-300 205.5,-300 205.5,-294 211.5,-288 217.5,-288 217.5,-288 247.5,-288 247.5,-288 253.5,-288 259.5,-294 259.5,-300 259.5,-300 259.5,-312 259.5,-312 259.5,-318 253.5,-324 247.5,-324"/>
<text text-anchor="middle" x="232.5" y="-303.5" font-family="sans" font-size="10.00">rscript</text>
</g>
<!-- 9&#45;&gt;14 -->
<g id="edge20" class="edge"><title>9&#45;&gt;14</title>
<path fill="none" stroke="grey" stroke-width="2" d="M191.096,-359.697C197.623,-351.389 205.568,-341.277 212.747,-332.141"/>
<polygon fill="grey" stroke="grey" stroke-width="2" points="215.635,-334.13 219.061,-324.104 210.131,-329.805 215.635,-334.13"/>
</g>
<!-- 10&#45;&gt;5 -->
<g id="edge10" class="edge"><title>10&#45;&gt;5</title>
<path fill="none" stroke="grey" stroke-width="2" d="M184.118,-215.697C179.235,-207.559 173.313,-197.689 167.921,-188.701"/>
<polygon fill="grey" stroke="grey" stroke-width="2" points="170.909,-186.879 162.763,-180.104 164.906,-190.48 170.909,-186.879"/>
</g>
<!-- 11 -->
<g id="node12" class="node"><title>11</title>
<path fill="none" stroke="#d8ac56" stroke-width="2" d="M343,-396C343,-396 308,-396 308,-396 302,-396 296,-390 296,-384 296,-384 296,-372 296,-372 296,-366 302,-360 308,-360 308,-360 343,-360 343,-360 349,-360 355,-366 355,-372 355,-372 355,-384 355,-384 355,-390 349,-396 343,-396"/>
<text text-anchor="middle" x="325.5" y="-381" font-family="sans" font-size="10.00">zcat</text>
<text text-anchor="middle" x="325.5" y="-370" font-family="sans" font-size="10.00">contig: 3</text>
</g>
<!-- 11&#45;&gt;6 -->
<g id="edge11" class="edge"><title>11&#45;&gt;6</title>
<path fill="none" stroke="grey" stroke-width="2" d="M322.455,-359.849C315.867,-322.753 300.251,-234.81 292.313,-190.103"/>
<polygon fill="grey" stroke="grey" stroke-width="2" points="295.754,-189.466 290.56,-180.232 288.862,-190.69 295.754,-189.466"/>
</g>
<!-- 12 -->
<g id="node13" class="node"><title>12</title>
<path fill="none" stroke="#56d8a9" stroke-width="2" d="M357.5,-252C357.5,-252 327.5,-252 327.5,-252 321.5,-252 315.5,-246 315.5,-240 315.5,-240 315.5,-228 315.5,-228 315.5,-222 321.5,-216 327.5,-216 327.5,-216 357.5,-216 357.5,-216 363.5,-216 369.5,-222 369.5,-228 369.5,-228 369.5,-240 369.5,-240 369.5,-246 363.5,-252 357.5,-252"/>
<text text-anchor="middle" x="342.5" y="-231.5" font-family="sans" font-size="10.00">paste</text>
</g>
<!-- 11&#45;&gt;12 -->
<g id="edge18" class="edge"><title>11&#45;&gt;12</title>
<path fill="none" stroke="grey" stroke-width="2" d="M327.551,-359.871C330.448,-335.67 335.771,-291.211 339.221,-262.393"/>
<polygon fill="grey" stroke="grey" stroke-width="2" points="342.729,-262.534 340.442,-252.189 335.778,-261.702 342.729,-262.534"/>
</g>
<!-- 15 -->
<g id="node16" class="node"><title>15</title>
<path fill="none" stroke="#59d856" stroke-width="2" d="M395.5,-324C395.5,-324 365.5,-324 365.5,-324 359.5,-324 353.5,-318 353.5,-312 353.5,-312 353.5,-300 353.5,-300 353.5,-294 359.5,-288 365.5,-288 365.5,-288 395.5,-288 395.5,-288 401.5,-288 407.5,-294 407.5,-300 407.5,-300 407.5,-312 407.5,-312 407.5,-318 401.5,-324 395.5,-324"/>
<text text-anchor="middle" x="380.5" y="-303.5" font-family="sans" font-size="10.00">rscript</text>
</g>
<!-- 11&#45;&gt;15 -->
<g id="edge21" class="edge"><title>11&#45;&gt;15</title>
<path fill="none" stroke="grey" stroke-width="2" d="M339.096,-359.697C345.623,-351.389 353.568,-341.277 360.747,-332.141"/>
<polygon fill="grey" stroke="grey" stroke-width="2" points="363.635,-334.13 367.061,-324.104 358.131,-329.805 363.635,-334.13"/>
</g>
<!-- 12&#45;&gt;6 -->
<g id="edge12" class="edge"><title>12&#45;&gt;6</title>
<path fill="none" stroke="grey" stroke-width="2" d="M328.904,-215.697C322.377,-207.389 314.432,-197.277 307.253,-188.141"/>
<polygon fill="grey" stroke="grey" stroke-width="2" points="309.869,-185.805 300.939,-180.104 304.365,-190.13 309.869,-185.805"/>
</g>
<!-- 13&#45;&gt;8 -->
<g id="edge13" class="edge"><title>13&#45;&gt;8</title>
<path fill="none" stroke="grey" stroke-width="2" d="M81.0393,-287.697C79.4965,-279.983 77.6425,-270.712 75.9225,-262.112"/>
<polygon fill="grey" stroke="grey" stroke-width="2" points="79.3141,-261.224 73.9209,-252.104 72.4501,-262.597 79.3141,-261.224"/>
</g>
<!-- 14&#45;&gt;10 -->
<g id="edge15" class="edge"><title>14&#45;&gt;10</title>
<path fill="none" stroke="grey" stroke-width="2" d="M223.107,-287.697C218.735,-279.644 213.443,-269.894 208.605,-260.982"/>
<polygon fill="grey" stroke="grey" stroke-width="2" points="211.632,-259.223 203.785,-252.104 205.48,-262.563 211.632,-259.223"/>
</g>
<!-- 15&#45;&gt;12 -->
<g id="edge17" class="edge"><title>15&#45;&gt;12</title>
<path fill="none" stroke="grey" stroke-width="2" d="M371.107,-287.697C366.735,-279.644 361.443,-269.894 356.605,-260.982"/>
<polygon fill="grey" stroke="grey" stroke-width="2" points="359.632,-259.223 351.785,-252.104 353.48,-262.563 359.632,-259.223"/>
</g>
</g>
</svg>
